<svg width="117" height="119" viewBox="0 0 117 119" fill="none" xmlns="http://www.w3.org/2000/svg">
<g clip-path="url(#clip0_924_5865)">
<path fill-rule="evenodd" clip-rule="evenodd" d="M104.715 115.281H107.348C107.348 94.5157 92.9895 75.6877 72.7485 69.2989C80.9385 64.26 86.0682 55.1751 86.0682 45.2944C86.0682 41.3376 85.2748 37.537 83.7136 33.9745L99.3733 24.7706C99.7974 24.5251 100.05 24.0603 100.031 23.5657C100.017 23.0711 99.7316 22.6249 99.2929 22.4092L59.0741 2.51386C58.7158 2.33164 58.288 2.33164 57.9261 2.51386L17.7073 22.4092C17.2686 22.6249 16.9834 23.0711 16.9651 23.5657V23.614V55.7812H19.5976V25.9345L33.2829 33.9745C31.7217 37.537 30.932 41.3413 30.932 45.2944C30.932 55.1825 36.0726 64.2674 44.2773 69.2989C24.0253 75.6877 9.65259 94.512 9.65259 115.281H12.2851C12.2851 101.54 18.9687 88.6959 29.5755 80.1576L31.6925 78.5437C36.548 75.0667 42.1128 72.4524 48.1602 70.9909C48.7086 70.857 49.1145 70.3848 49.1657 69.8121C49.2205 69.2431 48.9061 68.6965 48.3906 68.4659C39.3816 64.3939 33.5608 55.2978 33.5608 45.2944C33.5608 41.6091 34.3213 38.0763 35.8167 34.7703C50.5551 34.7591 76.3243 34.7517 81.1798 34.7666C82.6752 38.0725 83.4321 41.6091 83.4321 45.2981C83.4321 55.2978 77.6259 64.3901 68.6389 68.4696C68.1197 68.7039 67.8089 69.2468 67.8637 69.8158C67.9149 70.3885 68.3208 70.8608 68.8692 70.9946C74.9057 72.4524 80.4632 75.0592 85.3077 78.5363L87.432 80.1502C98.0351 88.6885 104.715 101.537 104.715 115.281ZM80.6899 32.1858C78.0281 32.1077 72.0099 32.0854 58.0723 32.0854C53.3936 32.0854 47.8167 32.0878 41.1767 32.0907C39.613 32.0914 37.9904 32.0921 36.3067 32.0928V27.0018L37.1293 26.537L37.1396 26.5311C42.2932 23.5906 48.7043 19.9325 58.6098 19.9325C68.3707 19.9325 74.647 23.536 79.6914 26.4322L79.699 26.4366L80.6899 27.0018V32.1858ZM80.997 24.1049C75.6808 21.0518 69.0667 17.255 58.6098 17.255C48.0067 17.255 41.2609 21.1076 35.8423 24.2016L34.3579 25.0458C33.9337 25.2801 33.6741 25.73 33.6741 26.2172V31.1148L21.0857 23.7145L58.5001 5.20624L95.9182 23.7145L83.3297 31.111V26.2135C83.3297 25.7263 83.0664 25.2763 82.646 25.042L80.997 24.1049Z" fill="#617EFF"/>
<path d="M58.6553 102.969C58.5587 102.917 58.4427 102.917 58.3461 102.969L51.6915 106.528C51.4513 106.656 51.1684 106.453 51.2136 106.184L52.4873 98.6315C52.505 98.5264 52.4706 98.4192 52.3949 98.3442L46.9934 92.99C46.8016 92.7999 46.9091 92.4725 47.1762 92.433L54.6285 91.3315C54.7357 91.3156 54.8282 91.2479 54.8755 91.1504L58.2058 84.2904C58.3253 84.0442 58.6761 84.0442 58.7956 84.2904L62.1247 91.1503C62.1721 91.2478 62.2645 91.3156 62.3717 91.3315L69.8241 92.433C70.0912 92.4725 70.1987 92.7999 70.0069 92.99L64.6066 98.3441C64.5309 98.4192 64.4964 98.5264 64.5141 98.6315L65.7889 106.184C65.8342 106.453 65.5512 106.656 65.3111 106.528L58.6553 102.969Z" fill="#FFBA08"/>
<path d="M78.7071 104.255C78.6106 104.204 78.4946 104.204 78.398 104.255L74.1484 106.528C73.9082 106.656 73.6253 106.453 73.6706 106.184L74.4849 101.356C74.5026 101.25 74.4681 101.143 74.3924 101.068L70.9375 97.6436C70.7457 97.4535 70.8532 97.126 71.1203 97.0865L75.8835 96.3825C75.9907 96.3666 76.0831 96.2989 76.1305 96.2014L78.2576 91.8197C78.3772 91.5735 78.7279 91.5735 78.8474 91.8197L80.9739 96.2013C81.0212 96.2988 81.1136 96.3666 81.2208 96.3825L85.9841 97.0865C86.2512 97.126 86.3587 97.4534 86.1669 97.6436L82.7127 101.068C82.637 101.143 82.6025 101.25 82.6202 101.356L83.4352 106.184C83.4806 106.453 83.1976 106.656 82.9575 106.528L78.7071 104.255Z" fill="#FFBA08"/>
<path d="M38.6026 104.255C38.5061 104.204 38.3901 104.204 38.2935 104.255L34.0439 106.528C33.8038 106.656 33.5208 106.453 33.5661 106.184L34.3804 101.356C34.3981 101.25 34.3636 101.143 34.2879 101.068L30.833 97.6436C30.6412 97.4535 30.7487 97.126 31.0158 97.0865L35.779 96.3825C35.8862 96.3666 35.9787 96.2989 36.026 96.2014L38.1531 91.8197C38.2727 91.5735 38.6234 91.5735 38.7429 91.8197L40.8694 96.2013C40.9167 96.2988 41.0091 96.3666 41.1163 96.3825L45.8796 97.0865C46.1467 97.126 46.2542 97.4534 46.0624 97.6436L42.6082 101.068C42.5325 101.143 42.498 101.25 42.5157 101.356L43.3308 106.184C43.3761 106.453 43.0931 106.656 42.853 106.528L38.6026 104.255Z" fill="#FFBA08"/>
</g>
<defs>
<clipPath id="clip0_924_5865">
<rect width="117" height="119" fill="white"/>
</clipPath>
</defs>
</svg>
