<svg width="216" height="110" viewBox="0 0 216 110" fill="none" xmlns="http://www.w3.org/2000/svg">
<path d="M42.8071 22.921L49.7857 26.8236L50.0294 30.8114C50.1639 33.0049 50.2735 37.7808 50.2735 41.4252V48.0508H47.5995H44.9254V39.4509V30.8507L42.9198 29.5699C41.8166 28.865 39.6953 27.6755 38.2058 26.9263L35.4974 25.5641L31.3296 27.936L27.1619 30.3079L26.9224 34.3087C26.7902 36.5091 26.6615 40.5015 26.6359 43.1801L26.5889 48.0508H23.9148H21.2407V37.6192V27.188L28.4034 23.1376C32.3431 20.9097 35.625 19.0714 35.6972 19.0523C35.7694 19.0336 38.9687 20.7741 42.8071 22.921Z" fill="white"/>
<path d="M63.2619 30.6693V42.3206H69.1663H75.0706L76.5673 39.742C77.3906 38.3236 78.4529 36.3945 78.9278 35.4543C79.9523 33.4259 79.9076 33.2536 76.9723 27.9547L74.9839 24.3661H70.0781H65.172V21.6829V19L71.736 19.1043L78.3001 19.209L82.4174 26.3354L86.5348 33.4622L82.3044 40.7563L78.0736 48.0508H67.8029H57.5317V33.5344V19.018H60.3968H63.2619V30.6693Z" fill="white"/>
<path d="M107.953 29.1924C115.557 38.1762 116.573 39.2393 116.797 38.444C116.936 37.95 117.066 33.377 117.087 28.2817L117.125 19.018H119.99H122.856V33.5344V48.0508H119.819H116.782L112.298 42.7981C109.832 39.9094 105.999 35.4257 103.779 32.8349L99.7439 28.1239L99.5078 32.4529C99.3776 34.8336 99.2488 39.3169 99.2213 42.4161L99.1709 48.0508H96.4968H93.8228V33.5344V19.018L96.5923 19.0302L99.3619 19.0424L107.953 29.1924Z" fill="white"/>
<path d="M158.687 21.7875L158.799 24.3661L147.608 24.3718C141.453 24.3753 136.181 24.5273 135.892 24.7103C135.319 25.0732 135.084 29.8457 135.613 30.3751C135.774 30.5371 141.006 30.7552 147.24 30.8603L158.574 31.0513L158.687 33.6299L158.799 36.2084H144.266H129.732V27.6086V19.0088L144.153 19.1089L158.574 19.209L158.687 21.7875Z" fill="white"/>
<path d="M158.765 42.7026V48.0508H144.462C136.595 48.0508 130.076 47.9174 129.976 47.7547C129.875 47.5916 129.747 46.3455 129.692 44.9851L129.591 42.5116L141.503 42.4108L153.416 42.3099V39.8322V37.3545H156.09H158.765V42.7026Z" fill="white"/>
<path d="M171.371 27.6178V36.218L173.376 37.4889C174.479 38.1884 176.506 39.3837 177.879 40.1458C180.736 41.7308 179.954 41.895 185.983 38.4455L189.325 36.5331V27.7755V19.018H192.197H195.068L194.966 29.4205L194.865 39.823L187.606 43.9132L180.348 48.0038L179.202 47.3341C178.572 46.9659 175.349 45.1383 172.039 43.273L166.023 39.8815V29.4495V19.018H168.697H171.371V27.6178Z" fill="white"/>
<path d="M26.6106 58.5756H26.0875L22.4264 68.5605H21.1426L25.2 57.4662H27.4823L31.5238 68.5605H30.24L26.6106 58.5756ZM23.1238 64.5349H29.5902V65.6443H23.1238V64.5349ZM38.3844 61.6662L33.9308 67.4511H38.432V68.5605H32.441V67.5304L36.8946 61.7455H32.4886V60.636H38.3844V61.6662ZM43.6228 60.5251C44.3624 60.5251 45.0175 60.7047 45.5881 61.0639C46.1692 61.4232 46.6235 61.9145 46.9511 62.5379C47.2786 63.1613 47.4424 63.8745 47.4424 64.6775C47.4424 65.4488 47.2786 66.1356 46.9511 66.7379C46.6235 67.3402 46.1745 67.8156 45.6039 68.1643C45.0334 68.5024 44.3835 68.6715 43.6545 68.6715C42.936 68.6715 42.2915 68.513 41.7209 68.196C41.1609 67.879 40.7224 67.4405 40.4054 66.8805C40.0885 66.3205 39.9405 65.6813 39.9617 64.9628C39.9617 64.8466 39.9669 64.7251 39.9775 64.5983C39.9881 64.4715 39.9986 64.3341 40.0092 64.1862H46.1428C46.1217 63.6896 46.0002 63.2511 45.7783 62.8707C45.5564 62.4904 45.2605 62.1945 44.8907 61.9832C44.5315 61.7613 44.1194 61.6504 43.6545 61.6504C43.0311 61.6504 42.5081 61.7666 42.0854 61.999C41.6628 62.2315 41.3564 62.5643 41.1662 62.9975L40.136 62.5855C40.453 61.9198 40.9126 61.4126 41.5149 61.0639C42.1171 60.7047 42.8198 60.5251 43.6228 60.5251ZM41.2613 65.2164C41.2507 65.6707 41.3458 66.0722 41.5466 66.4209C41.7579 66.7696 42.0485 67.0443 42.4183 67.2451C42.7881 67.4458 43.216 67.5462 43.702 67.5462C44.1247 67.5462 44.5103 67.4458 44.859 67.2451C45.2077 67.0443 45.493 66.7696 45.7149 66.4209C45.9473 66.0617 46.0847 65.6602 46.1269 65.2164H41.2613ZM49.399 60.636H50.4926L50.556 61.793C50.7673 61.5077 51.0209 61.2647 51.3168 61.0639C51.6232 60.8632 51.956 60.7258 52.3153 60.6519C52.6851 60.5673 53.076 60.5621 53.4881 60.636V61.8247C53.0443 61.7402 52.6428 61.7402 52.2836 61.8247C51.9349 61.9092 51.6338 62.0677 51.3802 62.3002C51.1266 62.5326 50.9311 62.8285 50.7938 63.1877C50.6564 63.5364 50.5877 63.9432 50.5877 64.4081V68.5605H49.399V60.636ZM56.1722 62.2368C56.4046 61.7507 56.7691 61.3439 57.2657 61.0164C57.7623 60.6888 58.391 60.5251 59.1518 60.5251C59.8808 60.5251 60.5148 60.6941 61.0537 61.0322C61.6031 61.3704 62.0257 61.8458 62.3216 62.4587C62.628 63.0609 62.7812 63.7741 62.7812 64.5983C62.7812 65.4224 62.628 66.1409 62.3216 66.7538C62.0152 67.3666 61.5872 67.8421 61.0378 68.1802C60.4989 68.5077 59.8703 68.6715 59.1518 68.6715C58.4333 68.6715 57.8363 68.5183 57.3608 68.2119C56.8854 67.9055 56.5261 67.5304 56.2831 67.0866L56.2039 68.5605H55.1103V57.1492H56.2989V62.2526L56.1722 62.2368ZM61.4974 64.5983C61.4974 63.6896 61.2597 62.9711 60.7842 62.4428C60.3193 61.9039 59.6906 61.6345 58.8982 61.6345C58.4016 61.6345 57.9525 61.756 57.551 61.999C57.1601 62.2315 56.8537 62.5696 56.6318 63.0134C56.4099 63.4466 56.2989 63.9749 56.2989 64.5983C56.2989 65.2217 56.4099 65.7553 56.6318 66.199C56.8537 66.6428 57.1601 66.9809 57.551 67.2134C57.9525 67.4458 58.4016 67.5621 58.8982 67.5621C59.6906 67.5621 60.3193 67.2979 60.7842 66.7696C61.2597 66.2307 61.4974 65.507 61.4974 64.5983ZM69.6826 68.5605L69.5875 67.1341C69.3656 67.6202 69.0381 68.0005 68.6049 68.2753C68.1717 68.5394 67.6222 68.6715 66.9566 68.6715C66.386 68.6715 65.9 68.5817 65.4985 68.4021C65.0969 68.2224 64.7852 67.9688 64.5634 67.6413C64.352 67.3032 64.2464 66.907 64.2464 66.4526C64.2464 65.787 64.4947 65.2428 64.9913 64.8202C65.4879 64.387 66.2064 64.1228 67.1468 64.0277L69.5875 63.7583V63.1243C69.5875 62.6805 69.4237 62.3266 69.0962 62.0624C68.7686 61.7877 68.3249 61.6504 67.7649 61.6504C67.2154 61.6504 66.7558 61.7772 66.386 62.0307C66.0268 62.2843 65.7785 62.6488 65.6411 63.1243L64.5634 62.7439C64.7747 62.0466 65.1603 61.5024 65.7203 61.1115C66.2909 60.7205 66.983 60.5251 67.7966 60.5251C68.7369 60.5251 69.466 60.7681 69.9837 61.2541C70.512 61.7296 70.7762 62.3794 70.7762 63.2036V68.5605H69.6826ZM69.5875 64.7726L67.1309 65.0579C66.6026 65.1213 66.2011 65.2692 65.9264 65.5017C65.6517 65.7236 65.5143 66.0194 65.5143 66.3892C65.5143 66.759 65.6464 67.0549 65.9105 67.2768C66.1852 67.4987 66.5762 67.6096 67.0834 67.6096C67.6645 67.6096 68.14 67.4934 68.5098 67.2609C68.8796 67.0285 69.149 66.7168 69.3181 66.3258C69.4977 65.9243 69.5875 65.4911 69.5875 65.0262V64.7726ZM78.2823 60.636H79.5186L74.9857 71.7304H73.8446L75.1918 68.4496L71.9903 60.636H73.2899L75.8257 67.039L78.2823 60.636ZM84.2563 68.6715C83.485 68.6715 82.8088 68.5024 82.2276 68.1643C81.6465 67.8262 81.1922 67.356 80.8646 66.7538C80.5476 66.1409 80.3891 65.433 80.3891 64.63C80.3891 63.8164 80.5476 63.1032 80.8646 62.4904C81.1922 61.867 81.6465 61.3862 82.2276 61.0481C82.8088 60.6994 83.485 60.5251 84.2563 60.5251C85.0699 60.5251 85.7831 60.7153 86.3959 61.0956C87.0088 61.4655 87.4525 61.9832 87.7272 62.6488L86.6337 63.0292C86.4752 62.6066 86.1846 62.2738 85.762 62.0307C85.3499 61.7772 84.8691 61.6504 84.3197 61.6504C83.7808 61.6504 83.3106 61.7719 82.9091 62.0149C82.5182 62.2579 82.2118 62.6013 81.9899 63.0451C81.7786 63.4888 81.6729 64.0119 81.6729 64.6141C81.6729 65.5017 81.9106 66.2149 82.3861 66.7538C82.8616 67.2821 83.4956 67.5462 84.288 67.5462C84.8269 67.5462 85.3076 67.4247 85.7303 67.1817C86.1529 66.9387 86.4646 66.6111 86.6654 66.199L87.7431 66.5794C87.4578 67.2345 87.0088 67.747 86.3959 68.1168C85.7831 68.4866 85.0699 68.6715 84.2563 68.6715ZM94.648 68.5605L94.5529 67.1341C94.331 67.6202 94.0034 68.0005 93.5702 68.2753C93.137 68.5394 92.5876 68.6715 91.9219 68.6715C91.3514 68.6715 90.8653 68.5817 90.4638 68.4021C90.0623 68.2224 89.7506 67.9688 89.5287 67.6413C89.3174 67.3032 89.2117 66.907 89.2117 66.4526C89.2117 65.787 89.46 65.2428 89.9566 64.8202C90.4533 64.387 91.1717 64.1228 92.1121 64.0277L94.5529 63.7583V63.1243C94.5529 62.6805 94.3891 62.3266 94.0616 62.0624C93.734 61.7877 93.2902 61.6504 92.7302 61.6504C92.1808 61.6504 91.7212 61.7772 91.3514 62.0307C90.9921 62.2843 90.7438 62.6488 90.6065 63.1243L89.5287 62.7439C89.74 62.0466 90.1257 61.5024 90.6857 61.1115C91.2563 60.7205 91.9483 60.5251 92.7619 60.5251C93.7023 60.5251 94.4314 60.7681 94.9491 61.2541C95.4774 61.7296 95.7416 62.3794 95.7416 63.2036V68.5605H94.648ZM94.5529 64.7726L92.0963 65.0579C91.568 65.1213 91.1665 65.2692 90.8917 65.5017C90.617 65.7236 90.4797 66.0194 90.4797 66.3892C90.4797 66.759 90.6117 67.0549 90.8759 67.2768C91.1506 67.4987 91.5416 67.6096 92.0487 67.6096C92.6299 67.6096 93.1053 67.4934 93.4751 67.2609C93.8449 67.0285 94.1144 66.7168 94.2834 66.3258C94.4631 65.9243 94.5529 65.4911 94.5529 65.0262V64.7726ZM98.0606 60.636H99.1542L99.2176 61.7613C99.4712 61.3704 99.804 61.0692 100.216 60.8579C100.628 60.636 101.109 60.5251 101.658 60.5251C102.261 60.5251 102.789 60.6572 103.243 60.9213C103.698 61.1749 104.052 61.5605 104.305 62.0783C104.559 62.5855 104.685 63.2247 104.685 63.996V68.5605H103.497V64.1387C103.497 63.3145 103.317 62.6911 102.958 62.2685C102.609 61.8353 102.102 61.6187 101.436 61.6187C100.75 61.6187 100.211 61.8458 99.8198 62.3002C99.4395 62.7545 99.2493 63.4255 99.2493 64.313V68.5605H98.0606V60.636ZM115.221 57.4662C116.447 57.4662 117.493 57.6934 118.359 58.1477C119.236 58.5915 119.907 59.2307 120.372 60.0655C120.848 60.9002 121.085 61.8934 121.085 63.0451C121.085 64.1862 120.848 65.1688 120.372 65.993C119.907 66.8172 119.236 67.4511 118.359 67.8949C117.493 68.3387 116.447 68.5605 115.221 68.5605H111.56V57.4662H115.221ZM115.221 67.4511C116.732 67.4511 117.873 67.0655 118.645 66.2941C119.416 65.5228 119.802 64.4398 119.802 63.0451C119.802 61.6398 119.416 60.5462 118.645 59.7643C117.873 58.9719 116.732 58.5756 115.221 58.5756H112.828V67.4511H115.221ZM125.373 59.4156C125.172 59.4156 125.003 59.3522 124.866 59.2255C124.728 59.0881 124.66 58.9243 124.66 58.7341C124.66 58.5439 124.728 58.3802 124.866 58.2428C125.003 58.0949 125.172 58.0209 125.373 58.0209C125.563 58.0209 125.727 58.0949 125.864 58.2428C126.001 58.3802 126.07 58.5439 126.07 58.7341C126.07 58.9243 126.001 59.0881 125.864 59.2255C125.727 59.3522 125.563 59.4156 125.373 59.4156ZM127.623 59.4156C127.423 59.4156 127.253 59.3522 127.116 59.2255C126.989 59.0881 126.926 58.9243 126.926 58.7341C126.926 58.5439 126.989 58.3802 127.116 58.2428C127.253 58.0949 127.423 58.0209 127.623 58.0209C127.813 58.0209 127.977 58.0949 128.115 58.2428C128.263 58.3802 128.336 58.5439 128.336 58.7341C128.336 58.9243 128.263 59.0881 128.115 59.2255C127.977 59.3522 127.813 59.4156 127.623 59.4156ZM126.403 68.6715C125.653 68.6715 124.982 68.5077 124.39 68.1802C123.798 67.8526 123.333 67.3877 122.995 66.7855C122.657 66.1726 122.488 65.4488 122.488 64.6141C122.488 63.7688 122.657 63.0398 122.995 62.427C123.344 61.8141 123.814 61.3439 124.406 61.0164C125.008 60.6888 125.684 60.5251 126.435 60.5251C127.185 60.5251 127.856 60.6888 128.447 61.0164C129.05 61.3439 129.52 61.8141 129.858 62.427C130.207 63.0292 130.381 63.7477 130.381 64.5824C130.381 65.4277 130.207 66.1568 129.858 66.7696C129.509 67.3824 129.034 67.8526 128.432 68.1802C127.829 68.5077 127.153 68.6715 126.403 68.6715ZM126.387 67.5462C126.852 67.5462 127.29 67.4458 127.703 67.2451C128.115 67.0338 128.447 66.7115 128.701 66.2783C128.965 65.8345 129.097 65.2745 129.097 64.5983C129.097 63.9115 128.97 63.3515 128.717 62.9183C128.463 62.4851 128.13 62.1681 127.718 61.9673C127.317 61.756 126.884 61.6504 126.419 61.6504C125.954 61.6504 125.521 61.756 125.119 61.9673C124.718 62.1681 124.39 62.4904 124.136 62.9341C123.893 63.3673 123.772 63.9221 123.772 64.5983C123.772 65.2851 123.893 65.8451 124.136 66.2783C124.38 66.7115 124.696 67.0338 125.087 67.2451C125.489 67.4458 125.922 67.5462 126.387 67.5462ZM132.633 60.636L135.137 67.2292L137.657 60.636H138.909L135.739 68.5605H134.503L131.365 60.636H132.633ZM140.531 57.1492H141.72V68.5605H140.531V57.1492ZM147.307 60.5251C148.047 60.5251 148.702 60.7047 149.272 61.0639C149.854 61.4232 150.308 61.9145 150.635 62.5379C150.963 63.1613 151.127 63.8745 151.127 64.6775C151.127 65.4488 150.963 66.1356 150.635 66.7379C150.308 67.3402 149.859 67.8156 149.288 68.1643C148.718 68.5024 148.068 68.6715 147.339 68.6715C146.62 68.6715 145.976 68.513 145.405 68.196C144.845 67.879 144.407 67.4405 144.09 66.8805C143.773 66.3205 143.625 65.6813 143.646 64.9628C143.646 64.8466 143.651 64.7251 143.662 64.5983C143.672 64.4715 143.683 64.3341 143.694 64.1862H149.827C149.806 63.6896 149.685 63.2511 149.463 62.8707C149.241 62.4904 148.945 62.1945 148.575 61.9832C148.216 61.7613 147.804 61.6504 147.339 61.6504C146.715 61.6504 146.192 61.7666 145.77 61.999C145.347 62.2315 145.041 62.5643 144.851 62.9975L143.82 62.5855C144.137 61.9198 144.597 61.4126 145.199 61.0639C145.802 60.7047 146.504 60.5251 147.307 60.5251ZM144.946 65.2164C144.935 65.6707 145.03 66.0722 145.231 66.4209C145.442 66.7696 145.733 67.0443 146.103 67.2451C146.472 67.4458 146.9 67.5462 147.386 67.5462C147.809 67.5462 148.195 67.4458 148.543 67.2451C148.892 67.0443 149.177 66.7696 149.399 66.4209C149.632 66.0617 149.769 65.6602 149.811 65.2164H144.946ZM153.281 60.636V58.4172H154.47V60.636H156.578V61.7455H154.47V66.0088C154.47 66.4949 154.57 66.8488 154.771 67.0707C154.982 67.2926 155.246 67.4247 155.563 67.467C155.891 67.5092 156.229 67.5092 156.578 67.467V68.4972C156.166 68.5922 155.759 68.6187 155.357 68.5764C154.966 68.5341 154.612 68.4179 154.295 68.2277C153.989 68.027 153.741 67.747 153.55 67.3877C153.371 67.0285 153.281 66.5688 153.281 66.0088V61.7455H152.092V60.636H153.281ZM171.394 57.4662V68.5605H170.11L164.183 59.4949V68.5605H162.915V57.4662H164.198L170.126 66.516V57.4662H171.394ZM177.291 68.6715C176.551 68.6715 175.891 68.4919 175.31 68.1326C174.739 67.7734 174.29 67.2821 173.963 66.6587C173.635 66.0353 173.471 65.3221 173.471 64.519C173.471 63.7477 173.635 63.0609 173.963 62.4587C174.29 61.8564 174.739 61.3862 175.31 61.0481C175.88 60.6994 176.53 60.5251 177.259 60.5251C177.978 60.5251 178.617 60.6836 179.177 61.0005C179.748 61.3175 180.191 61.756 180.508 62.316C180.825 62.876 180.973 63.5153 180.952 64.2338C180.952 64.35 180.947 64.4715 180.936 64.5983C180.926 64.7251 180.915 64.8624 180.905 65.0104H174.771C174.792 65.507 174.914 65.9455 175.136 66.3258C175.357 66.7062 175.648 67.0073 176.007 67.2292C176.377 67.4405 176.794 67.5462 177.259 67.5462C177.872 67.5462 178.39 67.43 178.813 67.1975C179.246 66.9651 179.557 66.6322 179.748 66.199L180.778 66.6111C180.461 67.2768 180.001 67.7892 179.399 68.1485C178.797 68.4972 178.094 68.6715 177.291 68.6715ZM179.653 63.9802C179.663 63.5258 179.563 63.1243 179.351 62.7756C179.151 62.427 178.865 62.1522 178.496 61.9515C178.126 61.7507 177.698 61.6504 177.212 61.6504C176.789 61.6504 176.403 61.7507 176.055 61.9515C175.706 62.1522 175.416 62.4322 175.183 62.7915C174.961 63.1402 174.829 63.5364 174.787 63.9802H179.653ZM183.337 59.7009C183.337 59.1198 183.432 58.6285 183.622 58.227C183.812 57.8255 184.113 57.5349 184.525 57.3553C184.948 57.1651 185.508 57.0964 186.205 57.1492V58.2111C185.571 58.1583 185.133 58.2639 184.89 58.5281C184.647 58.7817 184.525 59.1726 184.525 59.7009V60.636H186.269V61.7455H184.525V68.5605H183.337V61.7455H182.227V60.636H183.337V59.7009ZM188.554 60.636V58.4172H189.743V60.636H191.851V61.7455H189.743V66.0088C189.743 66.4949 189.844 66.8488 190.044 67.0707C190.256 67.2926 190.52 67.4247 190.837 67.467C191.164 67.5092 191.502 67.5092 191.851 67.467V68.4972C191.439 68.5922 191.032 68.6187 190.631 68.5764C190.24 68.5341 189.886 68.4179 189.569 68.2277C189.262 68.027 189.014 67.747 188.824 67.3877C188.644 67.0285 188.554 66.5688 188.554 66.0088V61.7455H187.366V60.636H188.554ZM22.68 79.636L25.1842 86.2292L27.7042 79.636H28.9562L25.7864 87.5605H24.5502L21.4121 79.636H22.68ZM33.5933 79.5251C34.3329 79.5251 34.988 79.7047 35.5586 80.0639C36.1397 80.4232 36.5941 80.9145 36.9216 81.5379C37.2492 82.1613 37.4129 82.8745 37.4129 83.6775C37.4129 84.4488 37.2492 85.1356 36.9216 85.7379C36.5941 86.3402 36.145 86.8156 35.5744 87.1643C35.0039 87.5024 34.3541 87.6715 33.625 87.6715C32.9065 87.6715 32.262 87.513 31.6914 87.196C31.1314 86.879 30.6929 86.4405 30.376 85.8805C30.059 85.3205 29.911 84.6813 29.9322 83.9628C29.9322 83.8466 29.9375 83.7251 29.948 83.5983C29.9586 83.4715 29.9692 83.3341 29.9797 83.1862H36.1133C36.0922 82.6896 35.9707 82.2511 35.7488 81.8707C35.5269 81.4904 35.231 81.1945 34.8612 80.9832C34.502 80.7613 34.0899 80.6504 33.625 80.6504C33.0016 80.6504 32.4786 80.7666 32.056 80.999C31.6333 81.2315 31.3269 81.5643 31.1367 81.9975L30.1065 81.5855C30.4235 80.9198 30.8831 80.4126 31.4854 80.0639C32.0877 79.7047 32.7903 79.5251 33.5933 79.5251ZM31.2318 84.2164C31.2212 84.6707 31.3163 85.0722 31.5171 85.4209C31.7284 85.7696 32.019 86.0443 32.3888 86.2451C32.7586 86.4458 33.1865 86.5462 33.6726 86.5462C34.0952 86.5462 34.4809 86.4458 34.8295 86.2451C35.1782 86.0443 35.4635 85.7696 35.6854 85.4209C35.9178 85.0617 36.0552 84.6602 36.0975 84.2164H31.2318ZM44.5565 84.7394C44.6199 85.0247 44.752 85.31 44.9528 85.5953C45.1641 85.87 45.4494 86.1024 45.8086 86.2926C46.1784 86.4722 46.6486 86.5621 47.2192 86.5621C48.0328 86.5621 48.635 86.3719 49.026 85.9915C49.4169 85.6111 49.6124 85.1621 49.6124 84.6443C49.6124 84.2322 49.5014 83.8941 49.2795 83.63C49.0577 83.3658 48.7565 83.1492 48.3761 82.9802C47.9958 82.8005 47.5678 82.6421 47.0924 82.5047C46.6697 82.3885 46.2471 82.2617 45.8245 82.1243C45.4124 81.9764 45.0373 81.7968 44.6992 81.5855C44.3611 81.3636 44.0916 81.0783 43.8909 80.7296C43.6901 80.3809 43.5897 79.9477 43.5897 79.43C43.5897 78.8066 43.7377 78.2677 44.0335 77.8134C44.3294 77.3485 44.7467 76.9892 45.2856 76.7356C45.8245 76.4821 46.4531 76.3553 47.1716 76.3553C47.795 76.3553 48.3392 76.4451 48.8041 76.6247C49.269 76.8043 49.6546 77.0579 49.9611 77.3855C50.278 77.7024 50.5105 78.0722 50.6584 78.4949L49.5331 78.9228C49.4592 78.6798 49.3165 78.4473 49.1052 78.2255C48.8939 77.993 48.6192 77.8028 48.2811 77.6549C47.9429 77.507 47.5573 77.433 47.1241 77.433C46.7014 77.433 46.3158 77.507 45.9671 77.6549C45.629 77.8028 45.3595 78.0141 45.1588 78.2888C44.958 78.5636 44.8577 78.8964 44.8577 79.2873C44.8577 79.71 44.9739 80.0481 45.2063 80.3017C45.4494 80.5447 45.7663 80.7455 46.1573 80.9039C46.5588 81.0519 46.9973 81.1945 47.4728 81.3319C47.906 81.4692 48.3233 81.6172 48.7248 81.7756C49.1369 81.9341 49.5014 82.1296 49.8184 82.3621C50.146 82.5945 50.4048 82.8851 50.595 83.2338C50.7852 83.5824 50.8803 84.0104 50.8803 84.5175C50.8803 85.0775 50.7482 85.6005 50.4841 86.0866C50.2199 86.5621 49.8184 86.9477 49.2795 87.2436C48.7512 87.5288 48.0697 87.6715 47.235 87.6715C46.5377 87.6715 45.9248 87.5658 45.3965 87.3545C44.8682 87.1326 44.435 86.8368 44.0969 86.467C43.7588 86.0972 43.5263 85.6745 43.3995 85.199L44.5565 84.7394ZM56.0823 79.5251C56.8219 79.5251 57.477 79.7047 58.0475 80.0639C58.6287 80.4232 59.083 80.9145 59.4106 81.5379C59.7381 82.1613 59.9019 82.8745 59.9019 83.6775C59.9019 84.4488 59.7381 85.1356 59.4106 85.7379C59.083 86.3402 58.634 86.8156 58.0634 87.1643C57.4928 87.5024 56.843 87.6715 56.114 87.6715C55.3955 87.6715 54.7509 87.513 54.1804 87.196C53.6204 86.879 53.1819 86.4405 52.8649 85.8805C52.5479 85.3205 52.4 84.6813 52.4211 83.9628C52.4211 83.8466 52.4264 83.7251 52.437 83.5983C52.4475 83.4715 52.4581 83.3341 52.4687 83.1862H58.6023C58.5811 82.6896 58.4596 82.2511 58.2377 81.8707C58.0158 81.4904 57.72 81.1945 57.3502 80.9832C56.9909 80.7613 56.5789 80.6504 56.114 80.6504C55.4906 80.6504 54.9675 80.7666 54.5449 80.999C54.1223 81.2315 53.8158 81.5643 53.6257 81.9975L52.5955 81.5855C52.9124 80.9198 53.3721 80.4126 53.9743 80.0639C54.5766 79.7047 55.2792 79.5251 56.0823 79.5251ZM53.7207 84.2164C53.7102 84.6707 53.8053 85.0722 54.006 85.4209C54.2174 85.7696 54.5079 86.0443 54.8777 86.2451C55.2475 86.4458 55.6755 86.5462 56.1615 86.5462C56.5841 86.5462 56.9698 86.4458 57.3185 86.2451C57.6672 86.0443 57.9524 85.7696 58.1743 85.4209C58.4068 85.0617 58.5441 84.6602 58.5864 84.2164H53.7207ZM61.8585 79.636H62.9521L63.0155 80.7613C63.2691 80.3704 63.6019 80.0692 64.014 79.8579C64.426 79.636 64.9068 79.5251 65.4562 79.5251C66.0585 79.5251 66.5868 79.6572 67.0411 79.9213C67.4955 80.1749 67.8494 80.5605 68.103 81.0783C68.3566 81.5855 68.4834 82.2247 68.4834 82.996V87.5605H67.2947V83.1387C67.2947 82.3145 67.1151 81.6911 66.7559 81.2685C66.4072 80.8353 65.9 80.6187 65.2343 80.6187C64.5476 80.6187 64.0087 80.8458 63.6177 81.3002C63.2374 81.7545 63.0472 82.4255 63.0472 83.313V87.5605H61.8585V79.636ZM75.7498 87.5605L75.6547 86.1341C75.4328 86.6202 75.1053 87.0005 74.6721 87.2753C74.2389 87.5394 73.6894 87.6715 73.0238 87.6715C72.4532 87.6715 71.9672 87.5817 71.5657 87.4021C71.1642 87.2224 70.8525 86.9688 70.6306 86.6413C70.4193 86.3032 70.3136 85.907 70.3136 85.4526C70.3136 84.787 70.5619 84.2428 71.0585 83.8202C71.5551 83.387 72.2736 83.1228 73.214 83.0277L75.6547 82.7583V82.1243C75.6547 81.6805 75.491 81.3266 75.1634 81.0624C74.8359 80.7877 74.3921 80.6504 73.8321 80.6504C73.2827 80.6504 72.823 80.7772 72.4532 81.0307C72.094 81.2843 71.8457 81.6488 71.7083 82.1243L70.6306 81.7439C70.8419 81.0466 71.2276 80.5024 71.7876 80.1115C72.3581 79.7205 73.0502 79.5251 73.8638 79.5251C74.8042 79.5251 75.5332 79.7681 76.051 80.2541C76.5793 80.7296 76.8434 81.3794 76.8434 82.2036V87.5605H75.7498ZM75.6547 83.7726L73.1981 84.0579C72.6698 84.1213 72.2683 84.2692 71.9936 84.5017C71.7189 84.7236 71.5815 85.0194 71.5815 85.3892C71.5815 85.759 71.7136 86.0549 71.9777 86.2768C72.2525 86.4987 72.6434 86.6096 73.1506 86.6096C73.7317 86.6096 74.2072 86.4934 74.577 86.2609C74.9468 86.0285 75.2162 85.7168 75.3853 85.3258C75.5649 84.9243 75.6547 84.4911 75.6547 84.0262V83.7726ZM84.3495 79.636H85.5858L81.0529 90.7304H79.9118L81.259 87.4496L78.0575 79.636H79.3571L81.8929 86.039L84.3495 79.636ZM90.276 87.6715C89.5364 87.6715 88.876 87.4919 88.2948 87.1326C87.7243 86.7734 87.2752 86.2821 86.9477 85.6587C86.6201 85.0353 86.4564 84.3221 86.4564 83.519C86.4564 82.7477 86.6201 82.0609 86.9477 81.4587C87.2752 80.8564 87.7243 80.3862 88.2948 80.0481C88.8654 79.6994 89.5152 79.5251 90.2443 79.5251C90.9628 79.5251 91.602 79.6836 92.162 80.0005C92.7326 80.3175 93.1764 80.756 93.4933 81.316C93.8103 81.876 93.9582 82.5153 93.9371 83.2338C93.9371 83.35 93.9318 83.4715 93.9213 83.5983C93.9107 83.7251 93.9001 83.8624 93.8896 84.0104H87.756C87.7771 84.507 87.8986 84.9455 88.1205 85.3258C88.3424 85.7062 88.633 86.0073 88.9922 86.2292C89.362 86.4405 89.7794 86.5462 90.2443 86.5462C90.8571 86.5462 91.3748 86.43 91.7975 86.1975C92.2307 85.9651 92.5424 85.6322 92.7326 85.199L93.7628 85.6111C93.4458 86.2768 92.9862 86.7892 92.3839 87.1485C91.7816 87.4972 91.079 87.6715 90.276 87.6715ZM92.6375 82.9802C92.648 82.5258 92.5477 82.1243 92.3364 81.7756C92.1356 81.427 91.8503 81.1522 91.4805 80.9515C91.1107 80.7507 90.6828 80.6504 90.1967 80.6504C89.7741 80.6504 89.3884 80.7507 89.0397 80.9515C88.6911 81.1522 88.4005 81.4322 88.168 81.7915C87.9462 82.1402 87.8141 82.5364 87.7718 82.9802H92.6375ZM100.399 76.4662H101.667V83.4715C101.667 84.2005 101.799 84.7922 102.063 85.2466C102.327 85.7009 102.681 86.0338 103.125 86.2451C103.58 86.4564 104.092 86.5621 104.663 86.5621C105.223 86.5621 105.724 86.4564 106.168 86.2451C106.612 86.0338 106.966 85.7009 107.23 85.2466C107.494 84.7922 107.626 84.2005 107.626 83.4715V76.4662H108.894V83.4556C108.894 84.1847 108.778 84.8134 108.546 85.3417C108.324 85.87 108.012 86.3085 107.611 86.6572C107.209 86.9953 106.755 87.2488 106.247 87.4179C105.74 87.587 105.207 87.6715 104.647 87.6715C103.886 87.6715 103.183 87.5236 102.539 87.2277C101.894 86.9213 101.377 86.4564 100.986 85.833C100.595 85.2096 100.399 84.4172 100.399 83.4556V76.4662ZM111.387 79.636H112.48L112.544 80.7613C112.797 80.3704 113.13 80.0692 113.542 79.8579C113.954 79.636 114.435 79.5251 114.985 79.5251C115.587 79.5251 116.115 79.6572 116.569 79.9213C117.024 80.1749 117.378 80.5605 117.631 81.0783C117.885 81.5855 118.012 82.2247 118.012 82.996V87.5605H116.823V83.1387C116.823 82.3145 116.643 81.6911 116.284 81.2685C115.935 80.8353 115.428 80.6187 114.763 80.6187C114.076 80.6187 113.537 80.8458 113.146 81.3002C112.766 81.7545 112.575 82.4255 112.575 83.313V87.5605H111.387V79.636ZM120.555 79.636H121.728V87.5605H120.555V79.636ZM121.157 78.0511C120.914 78.0511 120.714 77.9719 120.555 77.8134C120.397 77.6549 120.317 77.4594 120.317 77.227C120.317 76.9839 120.397 76.7832 120.555 76.6247C120.714 76.4662 120.914 76.387 121.157 76.387C121.379 76.387 121.569 76.4662 121.728 76.6247C121.897 76.7832 121.982 76.9839 121.982 77.227C121.982 77.4594 121.897 77.6549 121.728 77.8134C121.569 77.9719 121.379 78.0511 121.157 78.0511ZM124.863 79.636L127.367 86.2292L129.887 79.636H131.139L127.969 87.5605H126.733L123.595 79.636H124.863ZM135.935 87.6715C135.195 87.6715 134.535 87.4919 133.954 87.1326C133.383 86.7734 132.934 86.2821 132.607 85.6587C132.279 85.0353 132.115 84.3221 132.115 83.519C132.115 82.7477 132.279 82.0609 132.607 81.4587C132.934 80.8564 133.383 80.3862 133.954 80.0481C134.524 79.6994 135.174 79.5251 135.903 79.5251C136.622 79.5251 137.261 79.6836 137.821 80.0005C138.391 80.3175 138.835 80.756 139.152 81.316C139.469 81.876 139.617 82.5153 139.596 83.2338C139.596 83.35 139.591 83.4715 139.58 83.5983C139.57 83.7251 139.559 83.8624 139.548 84.0104H133.415C133.436 84.507 133.558 84.9455 133.779 85.3258C134.001 85.7062 134.292 86.0073 134.651 86.2292C135.021 86.4405 135.438 86.5462 135.903 86.5462C136.516 86.5462 137.034 86.43 137.456 86.1975C137.89 85.9651 138.201 85.6322 138.391 85.199L139.422 85.6111C139.105 86.2768 138.645 86.7892 138.043 87.1485C137.441 87.4972 136.738 87.6715 135.935 87.6715ZM138.296 82.9802C138.307 82.5258 138.207 82.1243 137.995 81.7756C137.795 81.427 137.509 81.1522 137.139 80.9515C136.77 80.7507 136.342 80.6504 135.856 80.6504C135.433 80.6504 135.047 80.7507 134.699 80.9515C134.35 81.1522 134.059 81.4322 133.827 81.7915C133.605 82.1402 133.473 82.5364 133.431 82.9802H138.296ZM141.553 79.636H142.646L142.71 80.793C142.921 80.5077 143.175 80.2647 143.47 80.0639C143.777 79.8632 144.11 79.7258 144.469 79.6519C144.839 79.5673 145.23 79.5621 145.642 79.636V80.8247C145.198 80.7402 144.796 80.7402 144.437 80.8247C144.088 80.9092 143.787 81.0677 143.534 81.3002C143.28 81.5326 143.085 81.8285 142.947 82.1877C142.81 82.5364 142.741 82.9432 142.741 83.4081V87.5605H141.553V79.636ZM147.914 85.1356C147.977 85.4526 148.093 85.7168 148.262 85.9281C148.431 86.1288 148.648 86.2821 148.912 86.3877C149.187 86.4934 149.504 86.5462 149.863 86.5462C150.423 86.5462 150.846 86.4405 151.131 86.2292C151.427 86.0073 151.575 85.7326 151.575 85.4051C151.575 85.1304 151.485 84.9085 151.305 84.7394C151.136 84.5704 150.909 84.433 150.624 84.3273C150.339 84.2111 150.022 84.1107 149.673 84.0262C149.398 83.9628 149.102 83.8888 148.785 83.8043C148.468 83.7092 148.167 83.5824 147.882 83.4239C147.597 83.2655 147.364 83.0594 147.185 82.8058C147.005 82.5522 146.915 82.2194 146.915 81.8073C146.915 81.353 147.037 80.9568 147.28 80.6187C147.533 80.27 147.877 80.0005 148.31 79.8104C148.754 79.6202 149.261 79.5251 149.831 79.5251C150.487 79.5251 151.068 79.6677 151.575 79.953C152.093 80.2383 152.452 80.6821 152.653 81.2843L151.543 81.6647C151.469 81.39 151.332 81.1787 151.131 81.0307C150.941 80.8828 150.724 80.7824 150.481 80.7296C150.249 80.6768 150.016 80.6504 149.784 80.6504C149.308 80.6504 148.923 80.7455 148.627 80.9356C148.342 81.1153 148.199 81.39 148.199 81.7598C148.199 81.9605 148.247 82.1296 148.342 82.267C148.437 82.3938 148.569 82.4994 148.738 82.5839C148.907 82.6685 149.108 82.7424 149.34 82.8058C149.573 82.8587 149.826 82.9221 150.101 82.996C150.407 83.07 150.719 83.1651 151.036 83.2813C151.353 83.387 151.649 83.5296 151.923 83.7092C152.198 83.8783 152.42 84.1002 152.589 84.3749C152.769 84.639 152.859 84.9719 152.859 85.3734C152.859 85.8383 152.732 86.2451 152.478 86.5938C152.225 86.9319 151.871 87.196 151.416 87.3862C150.973 87.5764 150.455 87.6715 149.863 87.6715C149.05 87.6715 148.373 87.4919 147.834 87.1326C147.306 86.7628 146.952 86.2239 146.773 85.516L147.914 85.1356ZM155.024 79.636H156.197V87.5605H155.024V79.636ZM155.626 78.0511C155.383 78.0511 155.182 77.9719 155.024 77.8134C154.865 77.6549 154.786 77.4594 154.786 77.227C154.786 76.9839 154.865 76.7832 155.024 76.6247C155.182 76.4662 155.383 76.387 155.626 76.387C155.848 76.387 156.038 76.4662 156.197 76.6247C156.366 76.7832 156.45 76.9839 156.45 77.227C156.45 77.4594 156.366 77.6549 156.197 77.8134C156.038 77.9719 155.848 78.0511 155.626 78.0511ZM159.379 79.636V77.4172H160.568V79.636H162.676V80.7455H160.568V85.0088C160.568 85.4949 160.668 85.8488 160.869 86.0707C161.08 86.2926 161.345 86.4247 161.661 86.467C161.989 86.5092 162.327 86.5092 162.676 86.467V87.4972C162.264 87.5922 161.857 87.6187 161.455 87.5764C161.065 87.5341 160.711 87.4179 160.394 87.2277C160.087 87.027 159.839 86.747 159.649 86.3877C159.469 86.0285 159.379 85.5688 159.379 85.0088V80.7455H158.191V79.636H159.379ZM167.772 87.6715C167.033 87.6715 166.372 87.4919 165.791 87.1326C165.221 86.7734 164.772 86.2821 164.444 85.6587C164.116 85.0353 163.953 84.3221 163.953 83.519C163.953 82.7477 164.116 82.0609 164.444 81.4587C164.772 80.8564 165.221 80.3862 165.791 80.0481C166.362 79.6994 167.012 79.5251 167.741 79.5251C168.459 79.5251 169.098 79.6836 169.658 80.0005C170.229 80.3175 170.673 80.756 170.99 81.316C171.307 81.876 171.455 82.5153 171.433 83.2338C171.433 83.35 171.428 83.4715 171.418 83.5983C171.407 83.7251 171.396 83.8624 171.386 84.0104H165.252C165.273 84.507 165.395 84.9455 165.617 85.3258C165.839 85.7062 166.129 86.0073 166.489 86.2292C166.858 86.4405 167.276 86.5462 167.741 86.5462C168.353 86.5462 168.871 86.43 169.294 86.1975C169.727 85.9651 170.039 85.6322 170.229 85.199L171.259 85.6111C170.942 86.2768 170.482 86.7892 169.88 87.1485C169.278 87.4972 168.575 87.6715 167.772 87.6715ZM170.134 82.9802C170.144 82.5258 170.044 82.1243 169.833 81.7756C169.632 81.427 169.347 81.1522 168.977 80.9515C168.607 80.7507 168.179 80.6504 167.693 80.6504C167.27 80.6504 166.885 80.7507 166.536 80.9515C166.187 81.1522 165.897 81.4322 165.664 81.7915C165.442 82.1402 165.31 82.5364 165.268 82.9802H170.134ZM173.588 79.636V77.4172H174.776V79.636H176.884V80.7455H174.776V85.0088C174.776 85.4949 174.877 85.8488 175.077 86.0707C175.289 86.2926 175.553 86.4247 175.87 86.467C176.197 86.5092 176.536 86.5092 176.884 86.467V87.4972C176.472 87.5922 176.065 87.6187 175.664 87.5764C175.273 87.5341 174.919 87.4179 174.602 87.2277C174.296 87.027 174.047 86.747 173.857 86.3877C173.677 86.0285 173.588 85.5688 173.588 85.0088V80.7455H172.399V79.636H173.588ZM178.89 79.636H180.063V87.5605H178.89V79.636ZM179.492 78.0511C179.249 78.0511 179.049 77.9719 178.89 77.8134C178.732 77.6549 178.652 77.4594 178.652 77.227C178.652 76.9839 178.732 76.7832 178.89 76.6247C179.049 76.4662 179.249 76.387 179.492 76.387C179.714 76.387 179.904 76.4662 180.063 76.6247C180.232 76.7832 180.317 76.9839 180.317 77.227C180.317 77.4594 180.232 77.6549 180.063 77.8134C179.904 77.9719 179.714 78.0511 179.492 78.0511Z" fill="white"/>
</svg>
