<svg width="263" height="163" viewBox="0 0 263 163" fill="none" xmlns="http://www.w3.org/2000/svg">
<path d="M132.831 113.549C136.724 113.549 138.67 112.513 138.67 110.044C138.67 107.273 136.554 106.276 132.315 106.276H129.119V113.55L132.831 113.549ZM131.761 101.256C134.956 101.256 136.555 100.696 136.555 97.9663C136.555 95.3701 134.826 94.3322 131.373 94.3322H129.121V101.256H131.761ZM121.735 88.7012H132.448C139.921 88.7012 143.815 91.3889 143.815 97.1467C143.801 98.2405 143.512 99.3133 142.976 100.266C142.439 101.219 141.673 102.022 140.746 102.6V102.685C142.259 103.188 143.579 104.15 144.523 105.437C145.467 106.725 145.988 108.274 146.015 109.871C146.015 115.456 142.732 119.306 133.739 119.306H121.732L121.735 88.7012Z" fill="#CF0026"/>
<path d="M162.545 113.292V109.566L159 109.658C156.884 109.694 155.332 110.385 155.332 112.12C155.332 113.508 156.668 114.112 157.962 114.112C159.518 114.033 161.057 113.756 162.543 113.287L162.545 113.292ZM148.328 112.552C148.328 106.576 153.777 105.366 158.434 105.366H162.541V103.894C162.541 101.82 161.204 101.213 158.265 101.213C155.886 101.293 153.523 101.642 151.222 102.252L149.794 97.0156C152.828 95.7774 156.069 95.1304 159.345 95.1094C166.648 95.1094 169.584 97.1836 169.584 102.509V113.031C169.584 113.817 170.363 113.989 171.705 114.025L171.448 119.481C170.882 119.529 170.32 119.529 169.758 119.529C166.913 119.529 163.883 119.049 163.229 117.016C161.507 118.355 159.037 119.697 156.448 119.697C151.261 119.697 148.326 117.271 148.326 112.557" fill="#CF0026"/>
<path d="M175.244 95.676H182.456V98.0562C183.878 96.9741 186.999 95.0693 190.146 95.0693C197.538 95.0693 198.061 99.1353 198.061 104.505V119.306H190.883V105.108C190.883 101.863 190.147 101.3 187.73 101.3C185.901 101.331 184.102 101.761 182.456 102.559V119.306H175.244V95.676Z" fill="#CF0026"/>
<path d="M202.711 86.6714H209.922V104.417L216.456 95.6763H224.186L215.585 106.584L225.61 119.309H216.713L209.922 109.571V119.309H202.711V86.6714Z" fill="#CF0026"/>
<path d="M72.3497 43.6655H91.1653V74.2798H60.6094V67.3746L77.4877 50.4702L78.3164 49.6453L72.3497 43.6655Z" fill="#007142"/>
<path d="M53.4011 28L75.0119 49.6424L53.4011 71.2877L48.5356 66.4066V41.3266H40.0986L53.4011 28Z" fill="#CF0026"/>
<path d="M15.6445 43.6655V62.5182L20.7781 57.3754L21.6112 56.5505L39.3033 74.2821H46.2004V43.6655H15.6445Z" fill="#007142"/>
<path d="M0.000976562 81.4994L21.6117 59.854L43.2126 81.4994L38.3403 86.3828H13.3057V94.8305L0.000976562 81.4994Z" fill="#CF0026"/>
<path d="M15.6445 119.333V88.7188H46.2012V95.6254L29.3213 112.531L28.4927 113.356L29.3213 114.18L34.4601 119.331L15.6445 119.333Z" fill="#007142"/>
<path d="M53.4076 134.999L31.7969 113.354L53.4076 91.709L58.2732 96.5834V121.669H66.7146L53.4076 134.999Z" fill="#CF0026"/>
<path d="M91.1679 119.333H60.6045V88.7188H67.5017L84.3755 105.631L85.2042 106.451L86.0276 105.626L91.1664 100.483L91.1679 119.333Z" fill="#007142"/>
<path d="M85.2035 103.147L63.6025 81.4993L68.4681 76.6181H93.5034V68.1704L106.808 81.4993L85.2035 103.147Z" fill="#CF0026"/>
<path d="M131.601 59.934C136.174 59.934 137.805 57.559 137.805 54.7154C137.805 51.6445 136.561 49.4443 132.64 49.4443H129.102V59.934H131.601ZM121.735 43.6992H133.587C140.44 43.6992 145.351 47.7187 145.351 54.5384C145.351 60.5377 140.44 65.5913 131.345 65.5913H129.099V74.2228H121.732L121.735 43.6992Z" fill="#007142"/>
<path d="M176.373 72.5394L178.447 67.272C181.018 68.2477 183.752 68.7182 186.501 68.6579C190.169 68.6579 191.848 67.533 191.848 65.6785C191.848 60.7126 177.367 62.0512 177.367 51.6897C177.367 45.8164 182.927 43.266 188.318 43.266C191.613 43.1754 194.881 43.8883 197.84 45.3432L195.728 50.4328C193.412 49.6316 190.982 49.2087 188.531 49.1805C185.475 49.1805 184.521 50.3474 184.521 51.6432C184.521 55.7017 199.264 55.7017 199.264 65.416C199.264 72.1067 192.885 74.6976 186.594 74.6976C181.596 74.6976 178.659 73.7903 176.374 72.5387" fill="#007142"/>
<path d="M203.133 43.6992H210.461V56.0892H222.448V43.6992H229.771V74.2205H222.448V61.6588H210.461V74.2228H203.133V43.6992Z" fill="#007142"/>
<path d="M244.688 59.9775L247.75 48.2309L250.811 59.9775H244.688ZM252.748 43.6992H242.752L232.488 74.2205H240.078L242.964 65.2853H252.53L255.421 74.2205H263.001L252.748 43.6992Z" fill="#007142"/>
<path d="M156.546 59.9775L159.601 48.2287L162.662 59.9752L156.546 59.9775ZM164.604 43.6992H154.603L144.34 74.2205H151.935L154.817 65.2853H164.391L167.273 74.2205H174.863L164.604 43.6992Z" fill="#007142"/>
</svg>
