<svg width="117" height="119" viewBox="0 0 117 119" fill="none" xmlns="http://www.w3.org/2000/svg">
<g clip-path="url(#clip0_924_5814)">
<path fill-rule="evenodd" clip-rule="evenodd" d="M104.715 115.281H107.348C107.348 94.516 92.9897 75.688 72.7487 69.2991C80.9387 64.2602 86.0685 55.1753 86.0685 45.2946C86.0685 41.3379 85.275 37.5373 83.7138 33.9747L99.3736 24.7708C99.7977 24.5254 100.05 24.0605 100.032 23.566C100.017 23.0714 99.7319 22.6251 99.2931 22.4094L59.0744 2.51411C58.716 2.33189 58.2883 2.33189 57.9263 2.51411L17.7076 22.4094C17.2688 22.6251 16.9836 23.0714 16.9653 23.566V23.6143V55.7815H19.5978V25.9348L33.2832 33.9747C31.722 37.5373 30.9322 41.3416 30.9322 45.2946C30.9322 55.1828 36.0729 64.2677 44.2775 69.2991C24.0255 75.688 9.65283 94.5123 9.65283 115.281H12.2853C12.2853 101.541 18.969 88.6961 29.5757 80.1579L31.6927 78.544C36.5482 75.0669 42.113 72.4526 48.1605 70.9912C48.7089 70.8573 49.1147 70.385 49.1659 69.8123C49.2208 69.2434 48.9063 68.6967 48.3908 68.4661C39.3818 64.3941 33.561 55.298 33.561 45.2946C33.561 41.6093 34.3215 38.0765 35.817 34.7705C50.5553 34.7594 76.3245 34.7519 81.18 34.7668C82.6755 38.0728 83.4323 41.6093 83.4323 45.2983C83.4323 55.298 77.6262 64.3904 68.6391 68.4699C68.1199 68.7041 67.8091 69.2471 67.864 69.816C67.9152 70.3887 68.321 70.861 68.8695 70.9949C74.9059 72.4526 80.4634 75.0595 85.308 78.5365L87.4322 80.1505C98.0354 88.6887 104.715 101.537 104.715 115.281ZM80.6901 32.186C78.0284 32.1079 72.0102 32.0856 58.0725 32.0856C53.3938 32.0856 47.8169 32.088 41.1769 32.0909C39.6133 32.0916 37.9906 32.0923 36.3069 32.093V27.0021L37.1295 26.5372L37.1399 26.5313C42.2934 23.5908 48.7046 19.9327 58.61 19.9327C68.3709 19.9327 74.6473 23.5363 79.6916 26.4324L79.6993 26.4368L80.6901 27.0021V32.186ZM80.9972 24.1052C75.681 21.0521 69.0669 17.2552 58.61 17.2552C48.0069 17.2552 41.2611 21.1079 35.8426 24.2019L34.3581 25.046C33.934 25.2803 33.6744 25.7303 33.6744 26.2174V31.115L21.0859 23.7147L58.5003 5.20648L95.9184 23.7147L83.3299 31.1113V26.2137C83.3299 25.7265 83.0667 25.2766 82.6462 25.0423L80.9972 24.1052Z" fill="#617EFF"/>
<path d="M58.7915 103.904C58.6098 103.807 58.3916 103.807 58.21 103.904L52.2102 107.113C51.7585 107.354 51.2263 106.972 51.3115 106.467L52.4624 99.6414C52.4958 99.4437 52.4309 99.2422 52.2885 99.101L47.4033 94.2587C47.0426 93.9011 47.2448 93.2851 47.7472 93.2109L54.4776 92.2161C54.6792 92.1863 54.8531 92.0588 54.9421 91.8754L57.946 85.6879C58.1708 85.2248 58.8305 85.2248 59.0553 85.6879L62.0581 91.8754C62.1471 92.0588 62.321 92.1863 62.5227 92.2161L69.2531 93.2109C69.7556 93.2852 69.9578 93.9011 69.5971 94.2587L64.7129 99.101C64.5705 99.2422 64.5057 99.4437 64.539 99.6414L65.691 106.467C65.7762 106.972 65.244 107.354 64.7923 107.113L58.7915 103.904Z" fill="#FFBA08"/>
</g>
<defs>
<clipPath id="clip0_924_5814">
<rect width="117" height="119" fill="white"/>
</clipPath>
</defs>
</svg>
