<svg width="117" height="119" viewBox="0 0 117 119" fill="none" xmlns="http://www.w3.org/2000/svg">
<g clip-path="url(#clip0_924_5826)">
<path fill-rule="evenodd" clip-rule="evenodd" d="M104.715 115.281H107.348C107.348 94.5157 92.9895 75.6877 72.7485 69.2989C80.9385 64.26 86.0682 55.1751 86.0682 45.2944C86.0682 41.3376 85.2748 37.537 83.7136 33.9745L99.3733 24.7706C99.7974 24.5251 100.05 24.0603 100.031 23.5657C100.017 23.0711 99.7316 22.6249 99.2929 22.4092L59.0741 2.51386C58.7158 2.33164 58.288 2.33164 57.9261 2.51386L17.7073 22.4092C17.2686 22.6249 16.9834 23.0711 16.9651 23.5657V23.614V55.7812H19.5976V25.9345L33.2829 33.9745C31.7217 37.537 30.932 41.3413 30.932 45.2944C30.932 55.1825 36.0726 64.2674 44.2773 69.2989C24.0253 75.6877 9.65259 94.512 9.65259 115.281H12.2851C12.2851 101.54 18.9687 88.6959 29.5755 80.1576L31.6925 78.5437C36.548 75.0667 42.1128 72.4524 48.1602 70.9909C48.7086 70.857 49.1145 70.3848 49.1657 69.8121C49.2205 69.2431 48.9061 68.6965 48.3906 68.4659C39.3816 64.3939 33.5608 55.2978 33.5608 45.2944C33.5608 41.6091 34.3213 38.0763 35.8167 34.7703C50.5551 34.7591 76.3243 34.7517 81.1798 34.7666C82.6752 38.0725 83.4321 41.6091 83.4321 45.2981C83.4321 55.2978 77.6259 64.3901 68.6389 68.4696C68.1197 68.7039 67.8089 69.2468 67.8637 69.8158C67.9149 70.3885 68.3208 70.8608 68.8692 70.9946C74.9057 72.4524 80.4632 75.0592 85.3077 78.5363L87.432 80.1502C98.0351 88.6885 104.715 101.537 104.715 115.281ZM80.6899 32.1858C78.0281 32.1077 72.0099 32.0854 58.0723 32.0854C53.3936 32.0854 47.8167 32.0878 41.1767 32.0907C39.613 32.0914 37.9904 32.0921 36.3067 32.0928V27.0018L37.1293 26.537L37.1396 26.5311C42.2932 23.5906 48.7043 19.9325 58.6098 19.9325C68.3707 19.9325 74.647 23.536 79.6914 26.4322L79.699 26.4366L80.6899 27.0018V32.1858ZM80.997 24.1049C75.6808 21.0518 69.0667 17.255 58.6098 17.255C48.0067 17.255 41.2609 21.1076 35.8423 24.2016L34.3579 25.0458C33.9337 25.2801 33.6741 25.73 33.6741 26.2172V31.1148L21.0857 23.7145L58.5001 5.20624L95.9182 23.7145L83.3297 31.111V26.2135C83.3297 25.7263 83.0664 25.2763 82.646 25.042L80.997 24.1049Z" fill="#617EFF"/>
<path d="M72.4553 103.831C72.3588 103.779 72.2428 103.779 72.1462 103.831L65.4915 107.39C65.2514 107.519 64.9684 107.315 65.0137 107.047L66.2874 99.4938C66.3051 99.3887 66.2706 99.2815 66.1949 99.2065L60.7935 93.8523C60.6017 93.6622 60.7091 93.3348 60.9763 93.2953L68.4286 92.1938C68.5358 92.1779 68.6282 92.1102 68.6755 92.0127L72.0058 85.1527C72.1254 84.9065 72.4761 84.9065 72.5956 85.1527L75.9248 92.0126C75.9721 92.1101 76.0645 92.1779 76.1718 92.1938L83.6241 93.2953C83.8912 93.3348 83.9987 93.6622 83.807 93.8523L78.4066 99.2064C78.3309 99.2815 78.2964 99.3887 78.3142 99.4938L79.5889 107.047C79.6342 107.315 79.3513 107.519 79.1111 107.39L72.4553 103.831Z" fill="#FFBA08"/>
<path d="M44.855 103.831C44.7584 103.779 44.6424 103.779 44.5458 103.831L37.8912 107.39C37.651 107.519 37.3681 107.315 37.4134 107.047L38.687 99.4938C38.7048 99.3887 38.6703 99.2815 38.5946 99.2065L33.1931 93.8523C33.0013 93.6622 33.1088 93.3348 33.3759 93.2953L40.8283 92.1938C40.9354 92.1779 41.0279 92.1102 41.0752 92.0127L44.4055 85.1527C44.525 84.9065 44.8758 84.9065 44.9953 85.1527L48.3244 92.0126C48.3718 92.1101 48.4642 92.1779 48.5714 92.1938L56.0238 93.2953C56.2909 93.3348 56.3984 93.6622 56.2066 93.8523L50.8063 99.2064C50.7306 99.2815 50.6961 99.3887 50.7138 99.4938L51.9886 107.047C52.0339 107.315 51.751 107.519 51.5108 107.39L44.855 103.831Z" fill="#FFBA08"/>
</g>
<defs>
<clipPath id="clip0_924_5826">
<rect width="117" height="119" fill="white"/>
</clipPath>
</defs>
</svg>
