<svg width="456" height="77" viewBox="0 0 456 77" fill="none" xmlns="http://www.w3.org/2000/svg">
<path d="M56.455 10.264L74.723 20.48L75.361 30.919C75.713 36.661 76 49.163 76 58.703V76.047H69H62V53.535V31.022L56.75 27.669C53.862 25.824 48.309 22.71 44.41 20.749L37.32 17.183L26.41 23.392L15.5 29.601L14.873 40.074C14.527 45.834 14.19 56.285 14.123 63.297L14 76.047H7H0V48.74V21.434L18.75 10.831C29.063 4.99899 37.654 0.186993 37.843 0.136993C38.032 0.0879934 46.407 4.644 56.455 10.264Z" fill="black"/>
<path d="M110 30.547V61.047H125.456H140.912L144.83 54.297C146.985 50.584 149.766 45.534 151.009 43.073C153.691 37.763 153.574 37.312 145.89 23.441L140.685 14.047H127.843H115V7.02299V0L132.183 0.272995L149.366 0.546997L160.144 19.202L170.922 37.858L159.848 56.952L148.773 76.047H121.887H95V38.047V0.0469971H102.5H110V30.547Z" fill="black"/>
<path d="M226.99 26.681C246.895 50.198 249.555 52.981 250.14 50.899C250.503 49.606 250.845 37.635 250.9 24.297L251 0.0469971H258.5H266V38.047V76.047H258.05H250.1L238.363 62.297C231.908 54.735 221.873 42.998 216.063 36.216L205.5 23.884L204.882 35.216C204.541 41.448 204.204 53.184 204.132 61.297L204 76.047H197H190V38.047V0.0469971L197.25 0.0789948L204.5 0.111L226.99 26.681Z" fill="black"/>
<path d="M359.796 7.297L360.091 14.047L330.796 14.062C314.683 14.071 300.882 14.469 300.126 14.948C298.627 15.898 298.012 28.391 299.395 29.777C299.818 30.201 313.514 30.772 329.832 31.047L359.5 31.547L359.796 38.297L360.091 45.047H322.046H284V22.535V0.022995L321.75 0.284996L359.5 0.546997L359.796 7.297Z" fill="black"/>
<path d="M360 62.047V76.047H322.559C301.966 76.047 284.902 75.698 284.639 75.272C284.375 74.845 284.041 71.583 283.895 68.022L283.631 61.547L314.815 61.283L346 61.019V54.533V48.047H353H360V62.047Z" fill="black"/>
<path d="M393 22.559V45.072L398.25 48.399C401.137 50.23 406.442 53.359 410.037 55.354C417.515 59.503 415.467 59.933 431.25 50.903L440 45.897V22.972V0.0469971H447.516H455.032L454.766 27.278L454.5 54.509L435.5 65.216L416.5 75.924L413.5 74.171C411.85 73.207 403.413 68.423 394.75 63.54L379 54.662V27.354V0.0469971H386H393V22.559Z" fill="black"/>
</svg>
